<?xml version="1.0" encoding="utf-8"?>
<!DOCTYPE svg PUBLIC "-//W3C//DTD SVG 1.1//EN" "http://www.w3.org/Graphics/SVG/1.1/DTD/svg11.dtd">
<svg version="1.1" xmlns="http://www.w3.org/2000/svg" width="1024" height="140" viewBox="0 0 1024 140">
<g>
<rect fill="#ffffff" width="1024" height="140" />
</g>
<g transform="scale(0.323,0.323)">
<g transform="translate(53.55,66.55)">
    <path stroke="none" fill="#eb3636" d="M188.7 178.05 L186.9 176.9 186 176.5 185.35 176.3 185.15 176.3 164.85 182 132 201.1 113.4 204.65 112.7 205.05 110.95 206.8 108.95 209.95 111.6 217.9 116.05 225.9 116.5 227.15 117.85 229.35 118.7 230.3 128.45 226.75 152.35 223.25 173.65 204.65 174.85 203.35 175.3 202.95 176.95 201.15 180 197.05 180.45 196.15 180.65 195.9 183.95 189.65 188.7 178.05 M129.35 2.65 L143.5 0 155 5.3 156.8 5.3 162.1 40.75 159.45 76.2 163 76.2 194 66.45 199.3 65.55 224.1 57.55 226.05 56.65 226.45 56.4 227.65 55.8 234.75 56.7 238.3 56.7 245.4 62 254.8 65.6 256.7 66.7 258.15 67.85 258.5 68.25 259.1 69.1 259.4 69.95 259.5 70.35 259.55 70.85 264 89.45 251.6 95.65 244.8 94.1 241.85 93.9 232.1 96.55 232.1 91.25 206.4 90.35 199.3 93 172.75 94.8 159.2 99.6 Q156.95 100.75 154.65 101.85 L153.25 102.75 154.15 108.95 139.95 135.55 137.3 148.8 122.25 170.95 117.8 175.4 93.9 186 101 194 151.5 165.65 182.5 155 212.6 154.15 216.15 153.25 217.05 155.9 217.45 156.2 217.65 156.3 217.9 156.35 218.1 156.3 218.8 155.9 223.25 163 224.1 191.35 204.65 216.15 186.9 222.35 187.5 223.9 188.2 224.8 188.4 224.95 188.7 225 198.45 225.9 201.95 226.95 205.5 228.55 211.7 232.1 203.75 242.7 204.65 253.35 184.25 250.7 174.5 254.25 170.95 254.25 166.8 253.35 166.55 253.35 145.8 254.9 136.8 256.7 135.65 257.05 131.65 258.65 130.2 259.55 128.1 260.4 123.15 263.1 108.05 258.65 105.4 260.45 104.55 255.1 89.45 232.1 85.4 202.5 83.25 194.9 79.75 192.2 79.3 191.05 78.4 187.75 77.95 183.35 79.75 175.4 79.9 174 80.05 173.3 80.75 172 81.75 170.7 82.4 170.1 93.25 178.85 94.4 179.55 96.2 180.1 96.9 180.2 99.6 179.95 100.3 179.75 102.5 178.9 105.55 176.85 108.85 174 116.05 165.65 124 151.5 124.9 135.55 126.85 122.65 127.55 112.5 125.05 111.35 123.75 110.95 122.65 110.75 122.25 110.75 115.15 114.25 88.6 121.35 60.25 132.85 59.45 132.75 58.9 132.6 58.65 132.45 58.55 132.35 58.45 132.15 58.45 132 52.25 136.4 46.05 137.3 24.8 147.05 22.55 147.5 20.4 147.65 16.15 147 15.05 146.6 12 145 7.95 141.75 5.1 138.75 1.1 133.4 0 131.1 1.75 124 5.3 130.2 31.9 120.45 52.25 115.15 70.85 108.05 132.9 87.7 137.3 58.45 137.3 23.05 132.9 12.4 129.35 12.65 124.35 12.45 119.6 11.5 118.9 11.2 118.3 10.85 117.15 9.95 115.6 7.9 115.15 7.1 115.6 6.2 116.7 4.75 118 3.65 119.6 2.9 120.5 2.65 129.35 2.65"/>
  </g>
<g transform="translate(442.4,70.65)">
    <path stroke="none" fill="#eb3636" d="M205.5 30.95 L205.65 30.3 205.95 29.7 203.55 22.6 203.5 21.95 203.55 21.3 204.1 20.25 204.55 19.85 205.15 19.5 205.95 19.25 218.45 19.25 219.9 19.8 222 20.95 222.7 21.5 225.05 23.85 227 26.85 227.9 28.65 222.65 35.95 216.35 41.2 213.7 40.15 212.75 39.6 212.2 39.15 213.25 38.05 209.25 36.3 207.75 35.35 207.1 34.85 206.2 33.75 205.65 32.65 205.5 30.95"/>
    <path stroke="none" fill="#eb3636" d="M61.45 73.7 L60.55 73.7 60.15 73.85 59.85 74.1 59.5 74.35 59.25 74.75 58.65 76.4 58.55 78.85 59.75 78.75 60.5 78.55 60.8 78.55 60.95 78.45 61.2 78.35 61.65 78.2 62.2 77.85 62.45 77.8 62.8 77.25 62.95 77.15 63.15 76.8 63.4 76.4 63.6 75.55 63.7 75.05 63.7 74.65 63.75 74.65 62.5 74 61.9 73.75 61.45 73.7 M122.45 75.55 L121.6 76.3 121.45 76.8 121.25 77.8 113.95 85.1 108.7 94.5 111.8 95.55 111.8 96 111.95 96.55 112.35 97.6 113 98.65 113.95 99.75 114.3 100.8 114.4 102.05 114.3 103.4 113.95 105 111.8 140.5 112.9 140.5 112.35 141.55 111.9 144.15 111.8 145.75 113 145 118.1 140.5 122.25 132.1 124 130 125.1 127.95 125.55 125.8 125.4 123.8 134.85 110.15 141.1 94.5 141.1 93.45 129.6 72.55 129.25 73 129 73.2 128.8 73.4 127.75 74.1 127.35 74.1 127.35 74.2 127 74.3 126.55 74.3 126.55 74.35 126.2 74.5 124.4 74.65 123.6 74.9 122.95 75.2 122.45 75.55 M158.95 46.3 L159.15 46.3 159.9 45.4 160.85 46 161.9 46.35 163 46.35 164.05 46.15 165.1 45.55 166.15 44.75 168.3 42.25 169.05 42.2 169.95 42.05 171.9 41.45 176.65 39.15 186.05 40.15 186.65 39.95 187.3 39.9 188.4 39.95 189.45 40.2 189.95 40.4 190.45 40.65 191.3 41.25 192.05 42.1 193.35 44.35 193.5 47.1 193.9 49.35 194.4 50.6 196.5 49.6 192.75 54.55 191.35 56 190.25 56.9 189.15 57.05 188.6 57.25 187.5 58.1 186.5 59.25 186.05 60 185.35 61.85 185 62.4 184.9 62.6 184.45 63.4 183.25 64.45 181.85 65.2 181.75 66.3 181.4 67.7 180.05 71.15 173.9 82.05 172.4 86.35 172.3 88.3 172.6 90.1 173.25 91.8 173.75 92.65 175 94.1 176.65 95.55 186.05 113.3 200.7 137.35 202 136.65 202.35 136.3 202.35 136.25 202.5 136.25 203 135.8 203.55 134.6 203.75 133.9 204.05 130.55 204.35 129.6 204.85 129 205.1 126.35 205.4 125.4 205.95 124.8 205.95 100.8 204.15 100.6 203.55 100.45 203.25 100.25 203.05 99.9 203.15 99.3 205.95 96.8 207.05 96 209.4 95 210.65 94.7 213.2 94.5 215.85 94.7 220.1 96 224.75 98.65 225.75 98.65 226.45 99.15 228.6 100.25 229.15 100.45 229.35 100.45 229.45 100.5 229.8 100.6 231 100.8 232.95 103.75 234.9 108.65 235 109.45 235.05 112.1 234.7 113.75 233.6 117.3 233.05 121.1 233 122.2 232.55 124.05 231 126.95 231.25 129.25 231.2 129.7 231.2 130.15 231.05 130.6 231 131.05 230.75 131.35 230.6 131.7 230.35 132 230.2 132.35 229.8 132.55 229.55 132.75 229.15 132.95 228.9 133.2 226.8 144.7 218.45 161.4 218.75 163.2 218.75 164 218.65 164.35 218.65 164.75 218.5 165.35 218.3 165.55 218.2 165.85 217.85 166.3 217.45 166.65 218.15 166.65 219.4 167 220.45 167.8 220.85 168.35 222.55 171.55 223.05 172.25 223.65 172.9 224.1 173.3 224.7 173.65 225.15 173.85 225.75 173.95 247.7 201.15 262.35 216.8 262.8 217.75 263.85 219.25 264.45 219.9 265.45 219.9 268.65 224.1 269.05 224.5 269.95 225.2 270.4 225.4 270.75 225.45 271.1 225.45 271.75 225.15 272.85 217.85 272.85 211.55 273.25 211.55 273.25 211.45 273.65 211.45 274 211.35 274.35 211.3 274.45 211.2 274.55 211.1 274.6 211 274.7 210.95 274.85 210.7 274.85 210.55 274.9 210.55 279.1 216.8 285.35 222.05 293.7 231.4 292.65 232.5 302.1 239.8 302.1 250.25 301.75 250.9 301.05 252.55 300.7 252.85 300.45 253.15 300.2 253.3 298.5 253.85 296.35 254.9 295.8 255.5 295.25 254.95 294.8 254.65 294.3 254.5 293.95 254.45 293.55 254.5 293.2 254.65 292.9 254.95 292.65 255.5 291.6 254.05 289.95 252.7 288.95 252.35 288.45 252.35 288.1 252.55 287.95 252.55 287.95 252.6 287.8 252.7 287.15 252.9 287 253 286.45 253 286 253.05 284.8 253.05 282.55 252.65 282.15 252.55 281.8 252.5 278.05 251.3 277.3 249.45 276.9 248.8 276.45 248.4 275.85 248.05 275.25 247.95 274.55 247.95 273.85 248.15 261.35 237.75 252.95 231.4 208 188.6 207.3 186.3 206.85 185.45 206.4 184.85 205.8 184.4 205.2 184.2 204.5 184.15 203.8 184.4 203.2 184.4 202.05 184.65 201.45 184.9 200.75 185.15 199.3 186 198.6 186.5 197.55 187.8 196.5 188.8 195.45 189.4 194.9 189.6 194.4 189.65 194.15 191.2 193.35 192.7 190.25 195.9 189.15 196.6 186.15 199.3 185.3 200.55 185 201.15 168.3 209.45 164.15 205.85 161.6 204.55 161.1 204.15 160.25 203.1 159.9 201.85 159.9 201.15 163.25 199.95 167.2 197.75 176.65 189.65 177.35 189.3 177.5 189.15 177.5 189.1 177.65 189.1 178 189 179.2 188.3 179.65 187.8 179.85 187.6 180.1 187.4 180.8 186.5 181.35 184.55 182.1 183.1 183 181.95 183.45 181.55 184 181.25 188.1 172.9 188.75 169.95 188.65 167.4 188.25 166.2 187.7 165.2 186.95 164.25 186.05 163.5 158.3 122.2 156.9 120.6 156.25 119.55 155.85 118.5 155.7 117.95 155.7 116.5 150.55 121.7 146.35 127.95 146.2 129 146.2 129.4 146.05 130.8 145.75 131.7 145.7 132.05 145.45 132.6 145.3 133.2 144.75 134.2 144.25 136.3 144.2 137.35 159.9 136.3 163.45 138.35 164.55 139.2 167.35 141.8 170.3 145.85 171.35 148.15 172.5 152 171.4 159.3 169.35 166.65 167.2 179.2 164.9 182.85 162.75 188.3 162.35 190.2 162.05 193.85 152.6 209.45 152.25 210.2 151.9 210.7 151.85 210.95 151.65 211.05 150.75 212.3 150 212.9 149.65 213.05 149.6 213.2 149.25 213.55 146.65 215.2 146 215.8 145 217 144.55 217.65 144.2 219.1 144.2 219.9 128.3 230.9 125.7 232.35 125.35 232.65 123.6 233.5 123.35 233.55 114.35 229.8 110.7 227.7 109.6 226.8 108.85 225.95 108.7 225.15 130.65 213.65 132.6 210.55 135.55 204.45 144.2 183.35 147.4 170.8 147.4 169.95 147.75 168.1 149.1 164.85 150.55 162.45 150.3 159.65 149.7 157.75 149.25 157 148.95 156.7 148.7 156.55 148.05 156.25 147.4 156.2 144.5 156.45 142.8 156.9 141.5 157.75 140.85 158.5 140.4 159.4 140.1 160.4 139 159.3 137.95 160.85 137.15 161.3 136.9 161.4 136.9 160.4 135.3 163.25 132.7 165.8 131.9 166.2 131.8 166.35 130.95 166.95 129.05 167.95 124.4 169.75 120.6 170.6 117.5 171.85 114.05 173.95 111.6 176.55 110.75 178.15 109.8 177.15 109.15 176.25 108.95 175.85 108.8 175.55 108.7 175 100.3 204.3 95.15 228.3 93 230.1 90.95 231.4 91.25 233.25 91.25 234 91.15 234.35 91.15 234.8 91 235.35 90.8 235.6 90.7 235.9 90.45 236.1 90.3 236.3 89.9 236.65 88.8 236.45 86.7 236.55 84.55 237.3 82.45 238.8 81.5 239.8 73.2 232.5 70.05 207.4 69 206.35 73.2 189.65 72.75 188.65 72.65 187.75 72.65 187.35 72.75 187.05 73.95 185.45 74.4 184.4 74.5 183.35 74.35 182.8 74.2 182.35 77.35 168.7 75.25 167.7 73.4 174.35 73.2 175 74.2 176 73.9 176.5 73.25 178.55 73.2 179.2 71.7 181.2 69.6 185.4 65.85 201.15 60.6 213.65 59.6 214.2 57.95 215.5 56.95 217 56.65 217.9 56.5 218.85 56.4 219.9 45.15 230.1 41.25 232.65 39.8 233.3 39.15 233.5 38.65 233.55 38.6 233 38.45 232.6 38.15 232.2 37.85 231.95 37.35 231.65 36.2 231.4 35.55 231.4 34.55 232.2 33.65 232.5 33.25 232.35 32.95 232.2 32.65 231.85 32.4 231.4 28.2 227.25 26.8 226.1 25.85 224.85 25.45 224.15 25.1 222.75 25.1 222.05 24.5 221.7 23.45 220.75 22.4 219.4 20.9 216.8 20.6 213.9 19.85 211.6 20.2 198.55 21.75 186.75 23.5 181.2 24.05 180.2 23.75 179.3 23.4 177.55 23.3 173.5 24.05 168.5 26.1 161.4 27.15 147.8 27.15 133.2 28.3 130.7 28.6 129.6 28.7 128.7 28.6 127.8 28.3 127.05 27.8 126.4 27.15 125.85 23.45 126.1 22.05 126.4 19.45 127.65 18.25 127.95 17.7 127.8 17.3 127.65 16.95 127.35 16.7 126.95 12.15 126.45 8.05 125.1 4.35 122.8 1 119.6 0 100.8 0.75 98.65 1 96.6 3.85 94.75 6.9 93.35 7.55 93.2 8.1 92.95 9.05 92.75 9.45 92.85 10.05 93 10.25 93.2 10.45 93.45 16.7 92.4 17.65 92.1 19.5 91.9 21 91.9 22.4 92.1 22.95 92.4 23.25 91.9 24.15 90.95 26.25 89.8 28.2 89.3 30.8 87.95 31.3 87.45 31.45 87.2 31.7 87.05 32.4 86.15 33.85 86 35 85.65 35.9 84.9 36.6 84.05 35.85 83.45 35.55 83.1 35.35 82.8 35.05 82.1 35 81.4 35.05 80.55 35.35 79.65 35.85 78.75 37.8 76.25 38.35 74.9 38.3 73.65 38 73.05 37.6 72.55 38.55 69.6 44.2 55.85 45.15 54.25 45.5 53.4 47.5 50.3 49.05 48.6 50.5 47.65 51.25 47.45 60.6 49.6 72.9 62.25 79.15 67.45 79.25 67.5 81.1 68.7 81.2 68.75 81.75 69.1 83.85 70.1 84.8 70.35 85 70.35 85.2 70.4 85.7 70.45 89.9 73.6 91 75.7 91.15 76.4 91.25 77.65 90.95 78.85 86.75 88.2 86.4 89.3 86.35 89.35 86.35 89.7 85.9 91.05 85.55 91.65 85.4 91.8 85.4 91.95 85.25 92.3 84.9 92.85 84.65 93.4 82.8 95.25 80.5 96.6 69 105 67.95 105 55.35 116.5 52.7 120.2 51.75 122.1 50.75 126 50.75 130 51.25 132.1 50.7 133.05 50.25 134.9 50.15 135.8 50.25 136.5 50.4 137.2 50.7 137.85 51.25 138.45 50.15 146.75 49.1 163.5 49.15 164.4 49.35 165.3 49.65 166 50.15 166.65 49.1 167.7 49.6 168.35 50.1 168.8 50.6 169.1 51.15 169.25 51.65 169.1 52.25 168.8 53.3 167.7 65.85 146.75 64.8 145.75 81.5 116.5 85.7 111.25 85.9 110.65 86.3 110 89.9 105 89.6 104.45 89.5 104 89.6 103.1 89.75 102.7 90.05 102.3 90.95 101.8 92 102.85 99.25 93.7 100 91.95 100.3 90.35 102.05 89.3 103.15 88.2 103.6 87.15 103.55 86.65 103.45 86.15 112.9 74.65 122.25 64.2 123.55 63.15 124.55 62.1 125.15 61.05 125.35 60.5 125.4 60 121.25 52.7 116 46.45 114.2 42.95 110.6 37.65 102.4 28.6 88.8 17.15 86.1 14.05 85.1 12.65 83.8 10.05 83.5 8.85 83.4 7.7 83.6 6.7 84.7 5.7 85.7 5.7 85.75 4.85 86 4.1 86.4 3.4 87.7 2.1 89.65 0.9 90.95 0.45 100.3 0.45 102.05 0.15 105.05 0 107.4 0.3 108.35 0.6 109.1 0.95 109.75 1.5 116 5.7 116.85 6.15 117.55 6.7 117.9 7.15 118 7.4 118.1 7.75 121.25 7.75 121.7 8.45 122.15 10 122.25 10.8 121.95 12.35 121.25 14 126.45 20.3 131.7 25.5 136.9 35.95 143.2 46.45 144.7 47.4 148.4 50.6 155.65 48.15 155.85 48.05 156.55 47.85 158.1 47.15 158.95 46.35 158.95 46.3"/>
  </g>
<g transform="translate(841.45,61.7)">
    <path stroke="none" fill="#eb3636" d="M246.75 231 L254.1 231 266.6 237.25 268.2 237.4 269.9 237.95 273.6 240.05 276.65 242.55 282.3 248.75 283.35 260.25 282.05 260.55 281.05 260.95 280.25 261.45 279.15 262.75 279 263.55 278.95 264.45 279.15 265.5 250.95 263.4 246.75 263.4 246.25 263.3 245.75 263.2 244.9 262.85 244.45 262.5 244.2 262.15 243.65 261.3 257.2 250.8 257.05 249.55 255.15 244.9 246.75 231"/>
    <path stroke="none" fill="#eb3636" d="M241.7 26.85 L253.05 19.85 262.3 27.2 263.35 28.25 264.05 29.2 264.35 29.75 264.45 29.9 264.7 31.5 264.7 31.9 264.75 32.05 265 33.7 265 34.6 265.05 34.7 264.9 36.3 264.75 36.6 264.7 36.95 264.6 37.25 264.55 37.6 246.75 43.9 226.9 47 221.7 53.3 215.4 59.55 215.25 60.5 215.15 60.9 215.1 61.35 214.9 61.7 214.8 62.05 214.55 62.35 214.4 62.7 213.45 63.65 212.8 64.7 212.4 65.8 212.25 66.85 202.9 76.3 193.45 86.75 204.95 82.55 241.35 76.35 247.8 76.1 248.85 76.3 249.35 76.95 250 77.55 251.45 78.35 252.2 78.55 253.1 78.6 255.1 78.35 266.6 84.65 270.8 96.1 268.7 98.25 270.8 113.95 270.8 127.5 269.75 128.85 269.25 130.1 269.2 130.85 269.25 131.45 269.55 132 269.75 132.15 270 132.4 270.8 132.75 268.7 156.75 265.6 174.5 264.9 177.3 264.55 180.8 290.65 183.95 292.75 184.95 295.2 186.8 295.85 187.45 296.85 188.9 297.4 190.4 297.55 191.15 297.65 192 297.45 193.65 296.9 195.45 289.3 200.65 286.9 201.65 286 201.8 285.65 201.8 285.4 201.7 266.6 199.6 246.75 200.65 234.4 200.65 232.55 200.9 230.45 201.45 226.9 202.8 214.4 221.55 199.75 240.35 177.2 263.85 173 267.55 166.5 272.6 165.25 273.3 164.65 273.5 164.15 273.8 163.95 273.6 163.8 273.4 163.75 273.3 163.35 272.7 163.15 272.35 162.8 271.8 162.35 270.95 160.8 268.35 154.8 257.1 160.65 252.05 161.3 251.65 161.8 251.15 162.35 250.8 162.75 250.45 163.15 250.2 163.45 250 163.75 249.85 164.15 249.8 167.9 247.7 171.75 244.55 175.7 240.35 192.4 219.5 192.45 218.55 192.6 217.9 192.9 217.55 193.45 217.4 193.9 217.05 193.95 216.95 194.3 216.75 195.05 216.05 195.2 215.6 195.25 215.35 195.4 215.15 195.55 214.25 198.15 210.35 199.75 206.9 194.5 206.9 191.6 208.5 189.8 209 189.25 209.05 140.15 219.5 128.65 217.4 125.45 214.75 123.9 213.8 122.35 213.25 101.7 234.9 94.65 241.55 93.9 242.15 90.35 245.2 89.95 245.6 83.4 249.5 82.8 249.75 82.35 250.05 81.85 250.2 81.5 250.45 81.15 250.55 80.95 250.7 80.7 250.75 80.55 250.8 76.2 242.25 74.4 236.45 74.15 233.65 74.3 232.05 74.3 223.65 86.85 213.25 87.4 211.05 88.1 209.5 91.65 204.45 99.85 195.6 102.45 192 104.05 188.8 104.6 186.05 99.4 186.05 96.5 187.6 94.65 188.1 94.15 188.15 78.05 195 74.55 195.95 71.2 196.05 68 195.45 67.9 194.9 67.65 194.3 67.3 193.75 67.25 193.65 65.95 192.35 62.8 190.2 61.45 189.1 61.15 188.75 60.7 187.85 60.45 187.15 60.4 186.45 60.45 185.65 60.7 184.95 92.1 174.5 94.2 173.05 97.25 171.4 99.85 171.1 103.6 170.35 102.5 150.5 101.05 149.6 99.85 149.15 99.35 149.05 98.55 149.15 98.35 149.45 95.45 151 93.6 151.45 93.1 151.5 84.75 154.7 76.4 156.75 75.85 156.4 75.4 156 74.9 155.45 73.8 153.35 73.25 151.5 73.2 150.7 73 150.05 72.45 148.85 71.95 148.35 70.8 147.6 70.15 147.4 70.4 146.4 70.95 145.5 71.65 144.75 73.8 143.7 76.7 143.25 78.45 143.2 81.95 140.9 83.7 140.05 85.55 139.9 85.9 139.75 85.9 139.7 86.3 139.7 86.65 139.6 86.65 139.55 87.05 139.55 88.2 138.85 88.35 138.6 88.6 138.4 88.95 137.95 103.6 131.7 103.8 129.25 103.8 128.25 103.75 127.8 103.75 127.45 103.6 126.65 103.3 126.15 102.95 125.75 102.5 125.45 103.6 123.3 103.05 121.3 102.5 117.05 102.8 115.8 102.75 114.4 102.6 113.7 102.6 113.5 101.45 110.75 89.95 113.95 76.4 107.6 73.1 107.85 71.7 108.15 69.6 109.15 68.9 109.9 68.3 110.8 68 111.8 50.25 135.9 40.85 150.5 41.05 151.2 41.05 151.75 41.1 152 41.05 153.35 40.85 153.95 40.75 154.05 40.7 154.05 40.7 154.25 40.55 154.6 37.9 158.3 36.7 159.9 26.65 175.45 26.15 176.35 26 176.45 25.15 177.65 21 188.15 3.2 204.85 2.7 204.4 2.45 204 2.05 203.1 1.85 202.5 1.2 198.35 1.1 192.3 0.55 191.05 0.05 188.5 0 185.8 0.15 184.45 1.05 180.7 2 178.4 4.65 173.5 28.3 141.05 47.95 117.6 75.3 79.4 86.85 65.85 86.9 64.95 87.1 64.15 87.55 63.25 88.1 62.4 88.4 61.9 90.2 59.95 92.1 58.55 92.15 57.65 92.6 55.95 93.6 54.1 95.25 52.15 96.25 51.2 97.5 49.15 98.35 47.25 98.55 45.5 98.5 44.65 98.35 43.9 104.15 35.85 106 32.15 107.2 28.7 107.4 26.95 107.5 23.7 107.3 22.25 106.85 20.75 105.45 18 104.6 16.7 104.25 13.1 104.05 12.2 103.35 10.55 102.5 9.4 104 8.85 105.35 8.55 107.7 8.3 111.35 9.9 113.45 10.4 114 10.45 114.15 10.5 115.85 11.75 116.9 12.9 116.95 13.05 117.1 13.2 117.85 16.8 118.65 19 118.85 19.4 119.2 19.85 120.15 21.3 120.2 21.4 121.05 22.65 122.35 25.1 122.35 26 122.6 27.65 123.1 28.95 123.5 29.5 123.95 29.9 124.45 30.25 124.15 30.75 124.1 31.25 124.15 32.35 124.65 33.4 125.55 34.45 124.45 35.6 120.15 41.1 118.9 42.3 118.2 42.8 117.85 42.95 117.55 43.2 116.1 43.9 116.4 45.35 116.35 46.75 116.15 47.3 116.05 47.45 115.95 47.45 115.95 47.6 115.85 47.95 115.5 48.3 115.45 48.3 115.45 48.5 115.05 49.1 117.15 49.85 119.45 50.15 121.85 49.85 132.85 47 155.8 38.65 158.55 39.55 162.45 41.55 165 43.3 168.5 46.55 171.65 50.55 174.6 55.4 170.85 58.6 167 60.9 165 61.65 164.45 61.75 163.05 62.25 162 62.4 161.7 62.4 161 62.6 159 62.7 145.35 68.95 140.15 72.1 125.55 77.35 123.4 76.3 134.9 62.7 109.85 54.35 98.35 68.95 94.15 77.35 78.45 97.15 76.95 98.1 75.55 99.5 75.3 99.95 75.05 100.75 75.1 101.5 75.5 102.2 75.8 102.5 76.25 102.85 77.45 103.45 94.15 99.3 116.1 89.85 119.15 88.05 120.7 87.4 123.9 86.6 127 86.5 128.65 86.75 129.9 87.25 131.1 87.95 133.3 89.8 135.25 92.15 137.05 95.1 127.6 100.3 117.15 104.5 120.3 126.45 127.55 124.9 133.45 124.55 134.65 124.8 135.6 125.15 135.95 125.45 139.05 127.5 140.1 128.6 140.95 129.8 141.4 131 141.65 132.2 141.5 133.45 141.15 134.8 139.65 136.25 137.2 137.4 135.7 137.9 135.2 137.95 127.65 139.55 124.25 140.95 121.65 142.7 119.8 144.95 119.2 146.3 120.45 161.55 120.95 163.1 121.65 164.3 122.1 164.85 122.5 165.2 123.05 165.55 124.35 166.05 125.8 166.2 127.6 166.15 128.7 166.6 131.5 168.35 133.4 170.1 133.85 170.8 134.15 171.4 134.55 172.8 134.6 173.6 134.55 174.3 133.85 176.65 118.2 199.6 119.15 199.55 119.15 199.5 120.05 199.5 121.15 199.3 121.6 199.3 121.95 199.15 122.1 199.15 122.65 199 123.4 198.6 124.45 197.45 124.9 197.25 125.2 196.95 126.85 196.25 127.5 196.2 128.05 196.25 128.65 196.45 138.05 192.3 140.65 192.5 141.1 192.65 141.5 192.8 142.25 193.35 138.05 198.6 137 200.35 135.9 201.7 134.85 202.5 134.65 202.5 134.3 202.65 133.85 202.8 135.95 204.85 159 199.6 180.95 196.45 180.85 196 180.8 195.75 180.8 195.6 180.7 195.3 180.65 195.05 180.15 194 180.05 193.8 179.85 193.45 179.1 192.3 178.05 190.85 172.15 184.6 171.1 183.25 170.3 181.85 170 181.15 169.7 179.7 169.8 178.25 170.55 176 170.95 175.25 171.5 174.5 171.5 163 173.6 118.1 173.6 99.3 176.8 97.9 178.75 97.3 180.5 96.95 182.8 96.8 183.45 96.9 184.65 97.25 185.65 97.8 186.1 98.25 186.4 99 187.3 100.65 191.35 105.55 191.75 106.55 191.85 107.6 191.75 108.7 191.35 109.75 194.95 110.45 196.4 110.65 196.7 110.65 197.65 110.75 198.35 110.45 200.45 110 203.8 109.7 203.8 109.6 204.7 109.6 205.85 109.45 206.25 109.45 206.6 109.25 206.75 109.25 207.15 109.1 207.3 109.1 208.05 108.7 209.25 107.8 211.6 106.4 214.1 105.55 216.7 105.2 219.3 105.3 221.95 105.95 224.7 107.1 231.3 111.2 231.85 111.8 232.1 112.3 232.25 112.85 232.25 113.35 232.15 113.95 228.6 116.25 224.55 118.05 222.15 118.7 221.5 118.85 219.75 119.35 219.05 119.4 217.1 119.75 216.4 119.85 196.55 123.3 192.4 123.3 192.4 145.25 196.25 144.45 199.75 144.2 206 141.05 217.5 139 218.2 138.7 220.45 138.25 221.9 138.1 224.45 138.35 226.85 139.3 227.95 140.05 229.15 141.3 230.8 143.6 231.3 144.75 231.55 145.65 231.6 146.6 231.5 147.05 231.45 147.5 231.3 147.7 231.25 147.9 231.1 148.4 219.6 151.5 207.05 153.65 199.75 153.65 193.45 155.7 191.35 157.85 192.4 180.8 192.4 192.3 192.3 192.75 192.25 192.75 192.25 193.15 192.15 193.5 192.1 193.85 191.95 193.95 191.9 194.05 191.8 194.25 191.55 194.35 191.35 194.35 191.35 194.4 193.25 194.7 196.05 194.65 203.9 193.35 208.05 193.35 210.2 189.8 211.45 186.5 211.8 183.5 211.2 180.8 209.15 177.65 209.6 177.1 210.9 176.3 212.55 175.7 214.5 175.35 219.2 175.3 226.9 176.65 235.25 188.15 242.6 186.05 248.85 182.9 248.85 171.4 250.95 159.9 252.15 157.4 252.75 155.15 252.65 153.15 252.4 152.3 251.95 151.5 250.95 127.5 251.95 116 251.5 114.95 251 112.8 250.95 111.8 251.3 110.75 251.45 109.7 251.3 108.6 251.2 108.3 251.15 108.1 250.95 107.6 251.55 104.9 251.85 101 251.45 97.1 250.25 93.2 249.1 90.65 246.75 86.75 245.35 86.55 241 86.45 224.2 87.7 189.25 92 191.35 88.8 190 88.1 189.7 87.85 189.55 87.7 189.25 87.2 189 86.6 188.95 86 189 85.35 189.25 84.65 190.5 83.05 191.3 81.7 191.5 81.05 191.55 80.5 191.5 79.9 191.35 79.4 203.9 55.4 203.9 49.1 184.05 44.9 183 42.85 183.9 42 186.75 40.6 196.45 38.1 199.75 37.6 211.2 32.4 214.4 18.75 216.45 4.15 221.7 0 222.3 0.05 222.65 0.2 225.55 1.85 233.45 7.55 233.8 7.95 234.35 9.1 234.6 10.55 234.75 12.5 232.95 25 233.15 26.8 233.45 27.55 233.75 28.1 234.2 28.5 234.75 28.75 235.5 28.9 237.1 28.75 239.2 28.1 241.7 26.85"/>
  </g>
<g transform="translate(1258.45,61.15)">
    <path stroke="none" fill="#eb3636" d="M60.65 49.05 L61.1 47.75 61.65 47 63.35 45.95 64.45 44.9 64.95 43.85 64.9 43.3 64.75 42.85 65.95 43.8 67.25 45.15 68.15 46.45 68.35 47.15 68.5 47.85 68.35 48.15 68.3 48.5 67.95 49.1 68.5 49.95 69.25 50.75 70.2 51.25 71.3 51.7 73.95 51.8 77.35 51.2 82.6 49.1 82.65 49.2 82.7 49.45 82.65 49.75 82.65 50.15 82.4 51.15 82.15 51.75 82 52.45 78.4 60.6 73.15 67.9 72.15 68.6 70.8 70.15 70.3 71.7 70.35 72.5 70.6 73.35 71.1 74.15 70.05 74.5 69.2 74.7 68.8 74.65 68.5 74.5 67.95 74.15 66.9 73.2 65.85 72.55 64.75 72.2 63.75 72.1 59.55 65.85 57.45 57.45 58.65 56.65 60.45 55 61.1 54.3 61.5 53.45 61.75 52.75 61.75 51.9 61.65 51.2 61.1 50.85 60.8 50.5 60.65 50.1 60.6 49.6 60.65 49.05"/>
    <path stroke="none" fill="#eb3636" d="M75.8 90.8 L76.5 91.7 79.2 93.45 79.95 94.05 80.3 94.5 80.4 94.75 80.45 95.1 70 101.35 59.05 106.2 56.25 106.95 55.1 107.1 53.9 106.95 52.9 106.65 51.95 106.2 51.2 105.55 50.85 105.75 50.55 105.95 49.85 106.3 49.35 106.4 48.95 106.5 48.5 106.55 48.05 106.55 48.05 106.6 47 105.55 75.25 89.85 75.8 90.8"/>
    <path stroke="none" fill="#eb3636" d="M127.15 15.1 L127.2 16.65 127.65 18.15 128.55 19.85 130.85 22.4 131.45 23.3 131.6 23.65 131.65 24 131.65 44.9 137.9 38.25 142.1 32.85 144.2 28.8 144.35 27.9 144.4 27.2 144.35 26.55 144.25 26.1 154.7 28.2 156.15 29.1 161.25 32.9 164.05 36 165.4 38.05 166.4 40.3 167 42.55 167.25 44.9 167.15 45.45 166.75 46.15 165.4 47.8 159.95 52.2 159.05 52.3 157.35 52.75 155.5 53.75 153.55 55.4 152.6 56.4 151.95 55.05 151.6 54.6 151.25 54.3 150.8 54.1 150.35 54.05 149.9 54.1 149.45 54.35 131.65 66.85 131.65 88.8 147.35 88.8 148.05 88.5 150.2 88.05 152.6 87.8 153.55 87.95 153.95 87.95 154.45 88.05 155.2 88.05 155.55 87.95 156 87.95 156.35 87.8 156.5 87.8 156.75 87.6 157.05 87.5 157.45 87.15 157.8 86.75 192.3 83.6 205.9 87.8 206.65 87.3 207.5 87.2 208.3 87.3 209.25 87.75 210.15 88.4 212.15 90.5 213.2 92 212.7 92.85 212.2 94.4 212.15 95.05 212.2 95.45 212.4 95.8 212.7 96 213.2 96.1 213.5 97.65 213.4 99.35 212.85 101.05 211.9 102.9 210.5 104.75 205.2 109.7 203.85 110.75 196 111.1 191.8 111.9 188.45 113.15 187.05 113.95 185.75 112.85 185.4 112.3 185.25 111.8 185.2 111.2 185.3 110.75 185.6 110.2 186.05 109.75 149.45 121.25 144.75 120.9 143.65 120.7 142.65 120.35 141.95 120 141.4 119.6 141.1 119.1 141.8 118.05 141.8 117.9 142 117.55 142.1 117.05 140.05 116 166.2 99.3 164.7 99.1 147.35 100 123.35 103.45 95.45 111.2 92.85 112.3 91.25 113.35 90.9 113.95 87.2 114.15 85.1 114.65 84.65 114.95 83 115.75 81.45 116.25 79.95 116.3 78.4 116 59.55 124.35 39.7 130.65 39.1 130.35 37.75 130.1 36.2 130.1 34.4 130.35 32.35 130.9 31.8 130.9 31.3 130.85 30.7 130.7 29.7 130 29.25 129.55 28.4 129.85 27.65 130.25 26.1 131.5 24.65 133.15 21.75 137.8 18.35 146.3 17.75 148.4 16.55 149.7 15.6 151.05 14.95 152.4 14.45 155.3 14.55 156.75 14.95 158.3 15.7 159.9 14.3 161.25 14.1 161.7 13.8 162 13.55 162.65 13.55 163 13.5 163.15 13.5 163.65 13.4 164.3 13.2 164.65 13.2 164.85 13 165.3 12.3 165.9 12.1 165.95 11.9 166.1 11.5 166.1 11.25 168.9 11.2 168.9 11.2 169.8 10.45 172.45 5.4 168.1 3.6 165.75 3.1 164.75 2.95 163.8 3.1 163 0 150.5 9.35 119.1 11.5 116 12.2 116.3 12.9 116.7 13.5 117.15 14.55 118.45 15.3 120.2 16.4 123.85 17.15 125.65 17.4 126.1 17.75 126.45 16.7 128.55 17.75 129.55 21.95 124.35 22.65 123.3 25.35 120.3 26.6 119.4 27.2 119.1 50.6 112.5 50.9 112.4 51.95 112.2 54.3 111.5 55.6 110.8 56.1 110.65 57.1 109.9 57.45 109.75 111.85 95.1 112 94.65 112.1 94.4 112.2 94.2 112.2 93.95 112.4 93.2 112.3 92.1 112.1 90.9 110.85 88.05 108.7 84.65 102.25 87.8 101.6 87.95 100.95 88.05 99.75 87.95 99.3 87.8 93 92 85.7 95.1 80.45 90.9 79.5 89.85 78.85 88.8 78.5 87.75 78.4 86.75 96.15 76.3 99.75 73.4 100.3 73.05 103.4 69.75 105.45 66.25 106.6 62.7 106.05 28.15 104.55 10.45 106.05 8.55 106.25 8.15 106.4 7.85 106.55 7.55 106.6 7.3 105.25 6.3 104.7 5.6 104.6 5.25 104.45 4.45 104.45 3.9 104.6 3.4 105.25 1.75 106.05 0.6 106.6 0 107 0.1 108.2 0.7 127.5 13.55 127.2 14.3 127.15 15.1"/>
    <path stroke="none" fill="#eb3636" d="M97.15 157.1 L96.15 156.75 98.2 168.25 99.75 167.25 100.4 166.6 101.3 165.95 108.25 160.05 109.15 159.4 117.05 152.55 106.6 154.7 103.55 156.35 100.8 157.25 98.35 157.35 97.15 157.1 M145 139.25 L146.25 139.85 146.5 139.9 146.75 140 147.35 140.05 150.5 144.2 151 147.1 150.85 148.35 150.65 148.7 150.65 148.85 150.2 150.15 149.95 151.45 149.95 152.5 150.2 153.3 150.5 153.65 134.8 162 128.55 169.35 138 177.65 137.7 178.55 137.55 180.15 137.8 181.2 138.1 181.55 138.45 181.7 139 181.85 140.35 180.5 140.8 180.25 141.1 180 141.75 179.75 142.1 179.75 154.7 186.05 153.95 187.15 152.1 191.45 151.4 195.25 151.4 196.95 151.6 198.5 152.2 199.95 152.6 200.65 150.85 206.1 150.25 209.35 149.7 216.9 150.5 231 152.1 233.6 152.25 234.05 152.25 234.1 152.45 234.45 152.55 234.8 152.6 235.15 156.65 239.7 161.6 244.4 164.85 246.8 165.65 247.2 165.85 247.35 166.65 247.75 166.85 247.85 167.7 248.2 169.5 248.7 169.9 248.7 170.35 248.75 171.65 249.9 172.15 250.3 173.15 250.75 173.5 250.8 175.45 250.85 179.1 251.35 180.8 251.85 201.7 251.85 204.3 253 205.6 253.3 206.9 253.4 208.2 253.3 209.5 253 212.15 251.85 213.6 251.8 213.75 251.75 216.2 251.65 216.45 251.6 217.35 251.6 218.3 251.4 218.7 251.3 219.15 251.2 220.15 250.85 220.5 250.8 222.05 251.1 223.6 251.05 224.3 250.85 226.8 249.8 227.5 249.3 228.95 248.45 229.65 248.2 230.25 247.9 231.45 247.7 232.05 247.7 234.55 246.05 236.35 243.95 236.5 243.6 236.65 243.55 237 243.2 241.4 234.1 252.9 244.55 253.15 247.15 253.25 247.6 253.45 248.05 254 248.75 254.4 249.15 254.7 249.65 254.7 249.8 254.75 250.05 254.75 250.5 254.5 250.85 254.15 251.2 253.85 251.35 253.7 251.35 253.7 251.4 253.55 251.5 252.9 251.85 253.4 253.25 253.45 253.7 253.4 253.8 253.4 254 253.25 254.35 253.15 254.45 253.1 254.45 253.1 254.65 252.9 255 252.5 255.45 252.4 256.05 252.5 256.55 252.9 257.1 251.2 258.2 250.8 258.6 250.4 258.9 250.15 259.25 249.8 259.95 249.6 260.55 249.6 260.85 249.75 261.2 249.85 261.45 250.15 261.7 250.85 262.3 221.6 272.8 215.8 273.05 214.8 273.15 213.5 273.5 213.2 273.8 203.65 273.15 180.25 270.4 174.1 269.1 164.4 266.15 160.95 264.45 160.1 264.4 158.05 263.9 156.2 262.8 154.7 261.3 152.55 259.7 151.55 259.2 150.45 256.65 150.45 256.6 141.1 241.45 136.9 229.9 136.55 226.4 136.4 225.5 136.05 224.6 135.25 223.15 134.8 222.6 134.55 220.65 134.6 214.95 135.8 206.5 138.5 195.7 139.2 190.45 139.05 185.8 138 181.85 137.1 182.3 136.8 182.55 136.65 182.9 136.55 183.35 136.65 183.6 136.9 183.95 136.9 184.95 137.35 185.45 138 186.45 138.15 187.05 138.2 187.5 138.2 188.1 138.15 188.55 138 189.15 134.05 190.75 130.65 191.3 124.35 195.45 82.1 243.9 76.55 251.3 76.25 251.85 72.1 256.05 70.95 256.75 70.7 257.05 70.25 257.55 69.8 258.6 69.7 259.2 69.8 259.65 70 260.25 59.55 270.7 57.45 268.65 56.85 268.8 56.35 269.05 53.75 269.5 53.3 269.5 52.25 269.65 53.4 268.15 53.65 267.5 53.8 266.95 53.65 266.45 53.4 266.1 52.9 265.75 52.25 265.5 51.5 262.55 51.35 261.3 51.45 260.2 51.6 259.2 52 258.35 52.55 257.65 53.3 257.1 52.85 256.05 52.55 255 52.45 253.95 52.65 251.8 53 250.75 53.55 249.7 54.3 248.75 57.15 243.25 57.65 241.05 57.45 239.35 73.15 222.6 81.45 212.95 83.55 209.7 85.7 204.85 81.25 205.4 79.55 205.2 78.4 204.85 75.85 203.75 75.8 203.75 72 201.35 71.1 200.65 70.6 198.85 70.3 195.6 70.8 192.65 72.15 190.15 74.15 188.15 76.25 186.55 77.35 186.05 77.15 185.65 77.1 185.4 77.35 183.55 77.5 182.95 77.8 182.35 78.05 181.65 78.75 180.15 81.5 175.6 81.3 167.75 80.2 162 79.05 158.25 76.55 152.65 72.1 145.25 71.6 143.55 71.35 141.55 71.55 140.6 71.8 140.3 71.95 139.95 72.25 139.75 73.45 139.55 74.55 139.75 75.25 140.05 76.4 140.25 90.5 139.4 119.15 134.8 120.65 134.3 123.25 133.8 125.05 133.7 125.75 133.6 126.95 133.2 127.85 132.5 128.55 131.7 133.25 132.75 133.55 132.75 134.55 132.95 135.5 132.95 135.6 133 136.55 133 136.9 132.95 137.35 132.95 137.65 132.8 138 132.75 142.8 137.6 145 139.25"/>
  </g>
<g transform="translate(1630.4,60.65)">
    <path stroke="none" fill="#eb3636" d="M46.45 69.6 L46 70 47.5 72.85 47.7 73.45 47.7 73.6 47.75 73.75 48 74.6 48.05 75.2 57.5 87.8 67.95 100.35 67.95 109.75 61.65 117.05 58.5 115.65 52.2 114.2 45.9 114.45 44.4 114.75 39.65 116.45 36.6 118.1 36.7 118.8 36.7 119.5 36.55 120.1 36.25 120.7 35.7 121.15 35.55 121.15 35.55 121.25 35.4 121.35 35.1 121.6 33.4 122.3 32.9 121.15 32.6 120.1 32.4 118.95 32.4 116.55 32.9 114.1 33.4 112.85 36.6 101.35 37 98 36.8 96.55 36.3 95.35 35.5 94.2 34.95 93.7 34.4 93.25 33 92.5 31.35 91.95 31.35 91.55 31.55 90.5 31.6 88.85 31.4 85.9 31.35 85.7 31.35 84.9 30.5 80 29.45 75.25 28.8 71.9 28.65 67.65 29.45 64 30.15 62.4 31.1 60.95 32.4 59.6 44.9 58.5 53.55 65.3 55.25 66.95 55.95 67.9 56.35 68.6 56.4 68.95 56.05 69.25 55.75 69.6 55.05 70.15 54.6 70.3 54.35 70.4 54.2 70.5 53.25 70.75 52.1 70.75 51.75 70.65 50.9 70.65 48.05 70 47.45 69.6 47 69.5 46.7 69.5 46.45 69.6"/>
    <path stroke="none" fill="#eb3636" d="M207 186.6 L209.05 188.15 215.3 195.45 214.8 196.35 214.3 197.95 214.25 198.6 214.9 198.9 215.2 199.05 215.5 199.35 215.85 199.9 216.1 200.65 216 202.5 215.3 204.85 214.3 206.55 214.15 206.8 214 207.1 213.8 207.25 213.25 207.95 212.4 208.75 211.9 208.95 211.4 209.25 210.35 209.75 209.25 209.95 208.7 209.95 208.6 210.05 208 210.1 194.65 207.2 191.45 206.9 190.8 206.8 189.65 206.45 189.1 206.1 188.7 205.7 188.35 205.3 188.1 204.85 180.25 199.35 179.9 198.9 179.8 198.6 178.3 198.45 177.15 198.3 176.2 197.95 175.6 197.5 176.85 196.7 181.6 194.35 183.85 193.55 185 193.35 185.65 192.75 186.1 192.1 186.4 191.4 186.5 190.7 186.4 189.85 186.1 188.95 185.65 188 185 187.1 176.65 178.7 177.65 176.65 190.9 179.3 193.05 180.25 193.85 180.75 194.55 181.4 195 182.05 195.45 182.9 196.7 182.65 199.75 183.05 203.15 184.35 207 186.6"/>
    <path stroke="none" fill="#eb3636" d="M83.35 191.7 L83.2 192.55 83.35 193.05 83.5 193.4 83.8 193.75 84.15 194.05 84.7 194.4 85.7 193.35 83.6 191.25 83.35 191.7 M123.4 188.1 L122.95 187.65 122.05 187.2 120.85 186.9 119.45 186.9 117.8 187.15 115.9 187.75 114.95 188.15 114.6 188.8 114.35 189.1 114.2 189.45 113.9 189.65 113.65 189.95 113.1 190.45 112.7 190.55 112.35 190.75 111.95 190.85 111.6 191.05 111.1 191.1 110.7 191.2 109.75 191.25 108.75 191.5 107.95 191.85 107.3 192.25 106.5 193.35 106.4 194 106.4 194.65 106.65 195.45 103.45 198.6 102.85 198.7 102.1 199.3 101.4 200.65 109.75 204.85 117.05 210.1 126.45 214.3 137.95 217.4 138.55 215.5 138.85 213.75 138.8 211.85 138.45 210.1 137.7 208.2 137.25 207.25 134.6 203.6 129.65 198.8 125.65 193.85 124.9 192.5 124.5 191.25 124.4 190.7 124.4 190.2 124 189 123.4 188.1 M127.5 181.85 L131.95 186 136.05 189.15 137 189.75 140.6 191.55 141.5 191.85 143.2 192.35 141.1 178.7 127.5 181.85 M140.25 154.1 L140.1 153.6 132.75 157.8 129.95 158.4 128.8 158.8 127.3 159.9 126.8 160.55 126.5 161.2 126.45 162 140.1 157.8 140.45 156.75 140.55 155.7 140.45 154.65 140.3 154.35 140.25 154.1 M126.7 133.1 L123.15 137 119.15 142.1 130.65 140.05 140.1 133.8 140.1 130.6 128.6 131.7 128.25 131.8 127.95 132.05 127.5 132.25 127.15 132.7 126.7 133.1 M163.2 118.7 L164.1 118.1 163.1 118.3 162.6 118.45 161.85 119.3 161.5 119.8 161.2 120.45 160.95 121.25 160.95 121.35 159.85 123.2 158.85 125.4 160.4 123.35 160.95 121.35 161.7 120.35 163.2 118.7 M169.95 143.2 L169.05 142.55 168.5 142.35 167.85 142.25 166.5 142.35 164.9 142.75 162.8 143.7 162.25 144 161.45 144.75 161.15 145.25 160.7 146.25 160.3 147.35 160.3 148.6 160.5 149.95 160.95 151.55 171.4 148.45 171.3 146.5 170.95 144.9 170.65 144.2 170.35 143.65 169.95 143.2 M167.2 58.5 L164.75 58.65 163.05 59.25 162.55 59.45 162.25 59.8 161.9 60.1 161.75 60.5 161.5 61.9 161.75 63.05 162.05 63.75 167.2 58.5 M178.55 27.8 L182.45 27.8 186.8 29.1 189.15 30.3 201.15 39.15 203.85 41.7 204.85 42.8 205.65 44 205.95 44.95 200.7 54.35 194.4 62.7 196.85 63.3 201.7 65.55 203.8 66.8 211.1 72.1 211.55 74.05 211.55 74.2 211.9 75.85 211.9 76.4 211.95 76.65 212.2 78.85 212.05 80.05 211.9 80.75 211.9 81.05 211.75 81.25 211.7 81.45 211.6 81.65 211.55 81.9 211.3 82.2 211.1 82.55 210.55 82.55 209.15 82.9 205.8 84.95 204.85 85.7 203.2 86.4 201.7 86.7 200.85 86.6 199.3 86.15 198.6 85.7 190.75 85.8 188.15 86.25 187.6 86.4 187.1 86.7 186.15 86.4 183.8 86.3 174.55 87.8 165.15 91.95 157.85 98.2 169.35 98.2 182.85 101.3 185.75 102.35 187.05 103.2 187.8 104 188.1 104.5 188.1 108.65 187.95 109.6 187.8 109.8 187.75 110 187.6 110.5 186.85 111.15 186.5 111.3 186.45 111.45 186.05 111.8 171.4 117.05 181.85 121.25 184.3 121.7 185.55 122.25 186.1 122.55 187.05 123.3 187.35 123.65 187.85 124.6 188.05 125.15 188.15 126.25 188.1 127.5 188.7 128.2 188.75 128.3 188.9 128.5 189.05 128.95 189.15 129.55 188.9 130.6 188.1 131.7 174.55 140.05 187.1 141.1 187.15 140.3 187.4 139.65 187.8 139 189.1 137.95 191.05 137.15 192.3 136.95 192.35 137.4 192.65 138.05 193.15 138.7 194.65 140.25 198.6 143.2 199.65 143.3 201.85 143.85 205 145.35 206.95 146.85 209.45 149.5 211.75 153 213.25 155.75 213.2 156.45 213.15 156.55 213.15 157.1 212.95 158.3 212.75 158.75 212.65 158.95 212.6 159.15 212.35 159.5 212.2 159.9 210.7 161.9 210.35 162.45 209.05 164.05 198.6 166.2 189.15 165.15 165.15 169.3 164.15 168.9 163.25 168.85 162.5 169 161.7 169.85 161.5 170.3 161.2 171.45 160.95 174.5 161.7 214 162.85 222.2 164.15 226.75 165.15 228.9 188.15 236.85 188.45 236.95 193.5 238.45 194.35 238.65 200.55 240.2 201.05 240.25 202.55 240.6 208 241.4 208.5 242.05 209.15 242.55 209.8 242.85 210.6 242.95 211.35 242.85 212.25 242.55 214.25 241.4 223.7 241.4 233.05 242.5 264.45 242.5 279.1 243.55 303.1 249.8 293.7 255.05 293.15 255.05 291.75 255.3 290.25 255.75 285.4 257.9 283.5 258.15 281.75 257.9 280.15 257.1 255 263.35 254 263.05 252.35 262.95 251.85 263.05 251.35 263.25 251.05 263.55 250.9 263.9 250.85 264.45 247.45 264.65 246.35 264.95 245.95 265.2 245.65 265.5 244.1 266.2 242.75 266.5 241.5 266.2 240.9 265.9 240.4 265.5 224.75 271.75 211.65 275.3 210.1 275.6 207.15 275.65 204.4 275.05 201.75 273.85 200.8 274.2 200.4 274.3 200.15 274.35 199.85 274.3 199.75 274.2 199.6 274.05 199.6 273.85 198.6 273.45 198.15 273.35 197.8 273.35 197 273.45 196.5 273.85 195.9 273.8 195.55 273.7 195.45 273.65 195.25 273.65 193.85 273.05 190.25 270.7 187.15 269.3 185.35 268.85 182.9 268.6 167.2 259.25 154.7 255.05 153.65 253.45 153.05 253.05 152.6 252.9 151.2 252.8 150.25 252.65 149.8 252.45 149.65 252.25 149.45 252.05 149.45 251.85 148.8 251.25 146.35 249.8 136.9 245.6 127.5 242.5 124.2 238.75 120.9 235.85 118.6 234.35 114.95 232.45 111.25 231.35 108.7 230.95 93 222.6 88.8 219.45 88.45 219.55 88.3 219.55 88.15 219.6 87.35 219.6 87.35 219.65 86.35 219.45 85.15 219.15 82.9 218.35 82.55 218.15 82.5 218.15 82.15 218.05 80.4 217.25 80.3 217.25 77.55 215.95 76.15 215.4 74.9 215.15 73.85 215.3 72.55 216.05 71.9 216.85 71.35 218 71.05 219.45 71.05 222.6 52.25 242.5 42.85 246.65 35.55 252.9 11.45 267.55 10.65 267.25 9.35 267 8.3 267 7.55 267.25 6.25 268.85 5.2 269.85 4.15 270.45 3.6 270.6 3.15 270.7 2.1 271.75 1.15 270.7 0.5 269.6 0.15 268.55 0 268 0 267.55 12.55 258.1 29.3 242.5 50.15 211.15 50.05 210.3 49.8 209.65 49.35 209.05 48.8 208.5 48.05 207.95 46.1 207.2 44.45 206.9 44.05 206.9 41.25 206.45 36.6 204.85 26.8 207 26.45 207 25.65 206.8 25.05 206.5 24.85 206.35 24.5 206.2 23.95 205.85 23.85 205.8 22.45 204.7 15.65 198.6 9.4 187.1 6.25 177.7 9 178.7 9.2 178.8 12 179.75 12.6 179.9 12.7 179.9 13.25 180.05 15.55 180.6 15.9 180.6 16.05 180.65 16.65 180.75 18.55 180.9 18.6 180.8 19.45 180.8 19.5 180.75 20.3 180.75 21.75 180.35 21.9 180.15 22.05 180.15 22.4 180.05 22.95 179.75 59.55 188.15 60.6 186 62.75 171.4 59.1 170.8 55.6 169.8 52.25 168.2 50.6 167.2 45.9 163.5 43.05 160.35 37.6 152.55 33.4 133.8 41.8 144.25 63.75 146.3 65.2 145.9 67.45 145.6 68.2 145.6 71.05 145.85 73.85 146.55 75.25 147.1 77.8 148.5 80.2 150.4 82.5 152.8 84.7 155.75 85.7 163.05 84.7 170.4 84.5 171.1 84.45 171.8 84.45 174.25 84.65 175.35 84.9 176.1 85.1 176.45 85.65 177.05 86 177.3 86.75 177.7 88.5 177.4 90.9 176.6 92.95 175.5 93.75 175.15 101.1 170.7 116 159.9 113.1 156.55 112.35 155.5 110.4 152.1 109.15 148.55 108.7 146.15 108.5 142.35 108.7 141.1 110.65 139.3 112.4 138 116 135.85 118.3 132.7 118.9 131.15 119.1 130.3 119.15 129.6 117.55 129.3 112.45 129.1 110.55 129.3 109.75 129.6 107.65 127.5 113.95 123.3 120.2 118.1 134.85 110.8 135.55 110.75 136.35 110.55 137.9 109.95 141.1 107.65 141.05 107.2 141.05 106.8 140.8 104.25 140.1 100.35 138.55 100.6 136 101.45 134.2 102.75 133.55 103.6 133.05 104.5 132.75 105.55 Q126.5 108.2 120.2 110.8 L109.75 119.15 98.75 118.85 93.9 118.3 93 118.1 88.85 116.05 88.5 115.85 88 115.5 87.85 115.45 80.85 110.45 72.1 102.4 72.4 101.65 72.85 101.1 73.3 100.7 73.95 100.55 74.6 100.45 75.4 100.6 77.35 101.35 88.8 99.3 99.3 95.1 99.85 94.35 100.5 93.7 101.25 93.15 103.05 92.3 105.3 91.95 106.65 91.95 108 91.8 109.15 91.45 110.05 90.75 111.25 89.3 111.75 88.9 112.85 88.25 113.9 87.9 114.95 87.8 115.2 87.85 115.6 87.9 116.55 87.8 119.4 86.95 123.4 85.2 128.6 82.55 143.2 77.35 141.1 70 133.6 73.8 127.15 75.85 122.85 76.35 122.45 76.35 122.35 76.3 121.9 76.3 121.45 76.2 120.85 76.05 119.15 75.2 116.95 73.75 100.3 59.05 97.65 56.15 96.65 54.75 96.35 54.15 96.2 53.6 96.15 53.25 106.7 57.35 106.75 57.35 107.1 57.5 107.85 57.7 109 57.75 109.4 57.65 109.75 57.45 110.45 56.7 111.9 55.5 113.2 54.7 114.35 54.35 114.95 54.35 144.2 43.9 143.15 32.4 141.85 28.2 140.1 25.05 140.25 24.45 140.25 23.95 140.3 23.85 140.25 22.4 139.8 20.7 138.5 17.75 137.85 15.85 137.55 14.35 137.65 13.05 137.95 12.5 137.65 11.65 137.45 9.6 137.55 8.35 137.65 7.8 138.75 5.75 139 4.4 138.75 3.2 137.95 2.05 138.65 2.45 139.4 2.7 139.95 2.7 140.55 2.6 141.05 2.15 141.05 2 141.1 2 141.45 1.65 142.15 0 148.4 7.3 153.65 15.7 162.05 36.55 169.35 35.5 170.25 35.15 170.65 34.9 171.1 34.75 171.25 34.55 171.75 34.2 171.9 34.05 172.4 33.7 172.5 33.45 172.85 32.9 172.9 32.7 173 32.5 173.2 32.15 173.25 31.65 173.35 31.25 173.5 30.3 175.05 29.1 176.8 28.3 178.55 27.8"/>
  </g>
<g transform="translate(2049.35,60.1)">
    <path stroke="none" fill="#eb3636" d="M172.6 229.55 L173.6 229.05 176.8 228.2 184 227.85 185.05 229.9 182.9 231.5 181.85 231.85 180.85 232.05 178.75 232.75 177.25 233.5 176.65 234.1 171.45 230.95 171.85 230.2 172.6 229.55"/>
    <path stroke="none" fill="#eb3636" d="M133.85 4.2 L153.7 12.5 164.15 15.7 172.5 19.8 179.45 32.4 181.05 36.55 181.85 40.05 182 41.95 181.9 42 181.9 42.8 182.2 43.05 183.2 44.2 184.2 46.25 184.8 48.9 185.05 52.25 184.5 52.7 183.7 53.55 183.45 54.05 183.2 54.4 183 55.05 183 55.4 182.8 56.8 182.45 58 181.75 58.85 180.85 59.6 178 59.7 176.3 59.4 175.9 59.3 175 58.75 174.35 58.15 173.85 57.35 173.55 56.45 156.85 56.45 139.1 57.45 135.9 59.05 129.3 59.95 106.65 64.75 103.4 63.65 101.15 62.4 99.95 61.35 99.75 61.05 99.5 60.65 99.4 60.3 99.3 59.6 116.05 45.95 133.85 32.4 133.85 29.25 120.25 21.95 105.65 16.7 88.85 11.5 87.1 9.5 86.5 8.55 86.2 7.8 86.05 7 86.1 6.35 86.35 5.7 86.8 5.2 88.85 4.2 89.6 4.3 90.4 4.3 91.95 3.9 93.5 2.75 95.15 1.05 96.05 0.6 97.45 0.15 98.8 0.25 99.5 0.4 100.2 0.75 100.85 1.3 101.45 2.05 104.55 2.05 104.85 1.5 106.05 0.7 107.85 0.25 111.9 0 133.85 4.2"/>
    <path stroke="none" fill="#eb3636" d="M171.45 97.05 L174.5 97.7 175.15 97.95 175.65 98.2 193.4 105.55 194.15 105.55 195.55 105.9 196.25 106.3 197.5 107.25 198.6 108.65 203.65 110.25 207.75 112.15 211.05 114.35 213.5 116.7 214.6 118.35 215.35 120.15 214.8 121.9 212.7 126.2 211 128.2 209.1 129.6 192.35 139 176.65 149.45 175.35 149.2 174.15 149.3 172.9 149.6 170.55 150.9 168.3 153.15 167.3 154.7 166.7 155.4 166.5 155.5 166.15 156.05 165.55 156.65 165.3 156.85 165.05 157.15 164.7 157.35 163.8 158 163.45 158.1 163.35 158.1 163.15 158.3 162.55 158.6 161.85 158.7 161.35 158.7 161.2 158.75 159.8 158.75 158.3 158.4 157.95 158.25 157.9 158.25 156.85 157.8 156 158.25 154.7 159.1 154.2 159.6 153.65 159.95 152.9 160.6 152.65 160.95 151.45 161.85 150.25 162.55 149.15 162.75 148.9 162.9 147.4 163.05 147.05 163.5 146.95 163.55 146.75 163.9 146.1 164.6 145.65 164.8 145.4 164.85 145.2 164.95 144.25 165.15 134.05 172.4 129.95 174.45 126.5 175.55 125.15 177.6 124.7 178.65 124.45 179.4 124.45 179.75 122.35 180.3 118.1 182.1 113.95 184.7 109.7 188.15 107.7 190.2 94.1 201.7 92.75 202.55 90.55 204.3 88 206.85 86.2 209.2 85.55 210.7 85.45 211.45 85.4 212.85 85.45 213.55 85.75 214.3 85.15 214.3 83.8 214.5 82.25 215 Q80.9 215.7 79.5 216.35 L76.6 218.65 75.35 219.25 74.75 219.4 74.25 219.45 72.9 221.3 72.4 221.6 72 221.95 71.55 222.25 71.1 222.6 71.7 223.15 72.2 223.8 72.35 224.4 72.35 225.2 72.1 225.95 71.65 226.9 70.05 228.9 69.6 229.85 69.35 231.2 69.4 231.7 69.75 232.5 70.25 233.2 71 233.9 71.95 234.55 73.2 235.15 81.55 235.15 84.15 234.65 87.8 233.1 113.95 227.85 114 227 114.3 226.35 114.75 225.7 116.3 224.65 118.75 223.9 122.85 223.35 123.35 223.2 123.5 223.05 123.75 223 124.1 222.75 124.45 222.6 126.4 221.25 127.45 220.75 128.25 220.55 131.75 220.7 135.15 220.25 138.6 219.1 153.7 212.15 154.65 212.6 154.7 212.6 157.1 213.75 157.3 213.8 158.55 214.2 158.9 214.3 164.5 210.3 169.3 207.6 170.35 207.15 170.75 207 171.45 206.95 172.5 206 173.55 205.35 174.6 204.95 177.1 204.65 178.25 204.3 179.15 203.6 179.85 202.75 187.15 199.65 194.5 197.5 200.75 194.4 201.2 194.35 203.25 193.85 207 192.35 214.3 191.25 215.25 190.8 216.25 190.5 217.2 190.4 218.2 190.45 219.05 190.6 219.9 191.05 220.75 191.55 221.6 192.35 222.55 192.1 224.7 192.1 226.8 192.55 227.9 193.05 230 194.4 231.95 196.15 233.9 197.5 234.7 197.95 234.8 197.95 235.6 198.3 236.45 198.45 236.6 198.45 236.85 198.5 237.3 198.6 247.75 209.05 247.8 209.75 248.05 210.55 249.05 212.1 250.65 213.65 254.2 216.2 255.2 217.3 256.6 219.4 257 220.45 257.25 221.55 257.3 222.6 257.2 223.65 257.15 223.8 257 226.35 256.9 226.95 256.85 227.1 256.85 227.6 256.65 228.9 255.1 233.25 252.4 236.75 250.7 238.15 241.5 244.55 223.75 255.05 213.25 259.25 211.9 261.05 211.2 261.6 211 261.85 210.3 262.35 210.1 262.6 209.25 262.95 209 263.15 206.4 264.05 200.75 265.45 198.6 266.5 197.1 267.8 196.55 268.6 178.8 268.6 175.05 270.9 173.65 271.5 173 271.7 171.85 271.75 170.4 272 165.15 273.85 163.1 273.85 163.8 271.75 164.55 270.25 165.15 269.7 166 268.15 166.3 267.45 166.45 266.8 166.5 265.55 166.4 264.95 166.2 264.45 179.85 250.85 181.55 249.7 181.85 249.3 182 249.15 182.15 249.05 182.7 248.45 182.9 247.75 183 247.4 183.1 247.1 183.1 246.3 183 245.6 192.35 239.35 192.2 238.9 192.05 237.95 192.1 237.45 192.1 236.85 192.35 235.75 192.6 235.15 193 233.75 195.5 228.9 196.3 226.6 196.5 225.9 196.6 224.55 196.5 223.35 196.1 222.2 195.5 221.2 194.55 220.25 193.4 219.45 184 219.45 174.6 221.6 164.15 225.8 155.95 229.8 152.05 232.65 149.35 235.65 148.45 237.25 132.75 246.65 131.7 246.95 129.7 247.95 127.85 249.55 126.2 251.7 123.75 255.65 122.85 256.6 122.85 256.7 122.05 257.65 121.75 257.75 121.05 258.3 120.1 258.8 119.55 258.95 119.1 259.1 118.15 259.25 99.3 269.7 85.5 274.1 78.45 275.15 74.25 274.95 72 274.3 71.1 273.85 68.2 274.1 65.5 273.9 64.15 273.65 61.55 272.75 60.4 272.2 57.9 270.7 55.6 268.65 51.25 263.35 46.05 252.9 42.9 242.5 44 240.55 50 231.45 53.25 227.8 54.65 226.6 55.9 225.9 56.5 225.8 58.55 223.65 58 223.3 57.65 222.95 57.35 222.55 57.15 221.45 57.25 220.2 57.55 219.45 58.8 217.95 59.6 216.6 59.8 215.95 59.85 215.35 59.8 214.75 59.6 214.3 61.75 211.15 62.5 210.5 62.8 210.15 62.95 209.8 63.05 209.3 63.05 208.9 62.75 207.95 72.2 200.65 75.3 198.8 76.45 197.8 77.35 196.7 77.5 196.35 77.5 196.2 77.65 196.05 77.95 195.45 78.35 194.15 78.5 192.75 78.45 191.25 88 183.3 88.4 182.85 88.85 182.4 89.65 181.6 89.9 181.05 90.15 180.6 90.65 179.65 91 177.7 100.4 170.4 101.45 168.25 108.75 162 109.15 161.55 110.45 160.3 110.95 159.45 111.05 159.4 111.6 158.6 111.7 158.05 111.9 157.6 112.05 156.65 112 156.5 112 155.65 111.9 154.7 124.45 135.85 125.45 134.8 125.75 134.2 125.75 134 125.7 133.75 125.55 133.55 125.5 133.45 124.85 132.95 124.45 132.75 122.55 133.5 121.25 133.8 120.6 134.55 120.25 134.85 120.1 134.85 120.1 134.9 119.95 135.05 119.5 135.1 119.1 135.1 118.15 134.8 106.65 139 104.85 139.3 101.85 140.15 99.5 141.45 98.55 142.3 97.8 143.2 97.25 144.25 76.35 150.5 76 150.8 75.7 151.15 75.35 151.45 75.2 151.55 75.05 151.75 74.85 151.8 Q74.6 151.95 74.3 152.15 L73.5 152.55 73.2 152.55 72.45 152.75 70.3 152.75 69.05 152.55 50.25 163.05 39.8 167.2 Q38.45 168 37.05 168.85 L34.5 169.8 31.9 169.9 29.3 169.3 20.95 174.5 10.45 174.5 8.65 171.15 7.35 169.3 6.5 169.2 5.7 168.95 4.85 168.5 3.3 167.2 1.8 165.25 1.1 164.05 0 152.55 0.1 151.05 0.3 149.65 0.75 148.45 1.3 147.3 2.05 146.3 3.4 145.05 5.25 144.25 7.5 142.9 7.95 142.4 8.4 142 9.15 141.05 9.5 140.15 9.7 139.95 9.75 139.6 10.1 138.7 10.35 137.35 10.35 136.95 11.55 126.5 12.25 126.35 13.05 126.05 14.6 124.9 17.8 120.15 18.55 119.25 19.45 118.5 20.4 118.05 21.45 117.8 22.5 117.75 23.7 118 24.85 118.45 26.15 119.15 26.45 120.05 26.7 120.45 27.05 120.95 27.75 121.6 28.75 122.25 31.25 123 39.2 123.55 41.55 124.05 43.25 124.9 43.9 125.4 47.3 125.15 47.8 125.15 49.05 124.85 49.5 124.75 50.75 124.4 51.25 124.35 52.3 123.85 52.7 123.7 54.05 123 54.95 122.3 55.3 122.1 56.5 121.25 63.8 121.25 64.25 121.15 66.1 120.7 69.05 119.15 71.15 119.1 71.65 119.05 77.2 118.8 83.9 117.8 88.8 116.2 89.15 116.15 90.25 115.65 90.7 115.35 Q91 115.2 91.25 115.1 L93.05 113.9 107.7 108.65 121.25 105.55 121.75 105 122.25 104.6 123.35 103.95 124.4 103.6 125.45 103.45 126.1 103.1 126.2 103 126.2 102.95 126.4 102.95 126.75 102.85 127.75 102.1 128.25 101.3 128.35 101.25 128.5 100.75 128.5 100.35 128.6 100.35 145.35 98.2 147.4 96.15 171.45 97.05"/>
  </g>
<g transform="translate(2424.5,51.4)">
    <path stroke="none" fill="#eb3636" d="M222.6 146.25 L221.7 146.55 220.9 147 219.6 148.55 218.7 150.9 218.45 152.45 223.65 152.45 223.65 146.2 222.6 146.25 M217.45 84.6 L217.4 84.45 215.35 85.55 213.2 83.45 212.15 84.45 210.95 84.3 208.9 84.4 207.15 84.9 205.65 85.7 204.5 86.9 203.6 88.4 203 90.3 202.75 93.9 203.85 109.6 205.9 111.65 206.95 109.6 210.1 97.05 216.1 88.1 217.3 85.6 217.45 84.8 217.45 84.6 M205.05 0.1 L208 0.85 218.2 6.65 218.6 6.95 218.95 7.35 219.3 8.25 219.4 8.7 219.45 9.25 217.6 9.75 215.45 10.9 214.55 11.85 214.25 12.35 213.2 19.7 207.7 31.9 207.6 33.2 207.85 34.25 208.15 34.65 208.5 35 209 35.4 209.15 36.1 209.1 36.8 208.75 37.4 208.25 37.95 206.5 38.85 203.85 39.55 201.7 37.45 197.5 41.65 197.5 63.6 200.1 75.1 200.95 76.8 201.7 77.7 202.55 78.35 203.55 78.85 204.65 79.15 205.9 79.25 206.95 81.35 210.1 77.15 210.8 76.6 212.2 75.8 213.5 75.3 214.75 75.1 215.35 75.1 215.75 74.55 216.65 73.9 217.45 73.6 218.1 73.75 218.45 74 219.45 75.1 224.7 69.85 230.95 70.9 237.3 74 245.5 73.1 247.7 73 252.75 79.05 254.4 82 255.5 84.9 256 87.7 256.05 88.65 256.85 88.9 257.6 89.25 257.95 89.65 258.05 89.9 258.1 90.2 258.05 90.4 257.95 90.7 257.6 91.35 255.5 93.3 255.1 93.85 254.45 94.9 254.1 95.95 254 97.05 254.15 98 254.15 98.15 254.45 99.65 254.45 100.15 254.5 100.4 254.45 101 254.35 101.5 254.2 101.7 254.15 101.95 254 102.3 253.05 103.1 248.9 107.6 248.5 108.25 248 108.75 247.3 109.8 247.1 110.25 246.85 110.6 246.7 111 246.65 111.65 245.6 112.25 243.5 114.4 242.95 115.05 242.45 115.85 241.1 119.45 239.35 122.1 239.05 123.5 238.3 124.7 Q238 124.95 237.65 125.15 L237.3 125.35 236.95 125.6 235.15 126.3 234.35 126.75 232.5 128.35 231.55 129.4 223.65 145.1 225.35 144.8 228.35 144.7 230.75 145 231.7 145.3 232.45 145.65 233.1 146.2 233.25 146.1 236.75 146.1 237.1 146.05 242.7 145.95 245.05 145.9 246 145.75 246.05 145.7 246.9 145.7 247.65 145.6 247.8 145.55 248.3 145.55 249.55 145.15 249.8 145.1 251.3 145.4 252.85 145.35 254.4 144.9 256.05 144.05 257 143.75 258.8 143.65 259.7 143.75 260.4 143.95 261.75 144.6 262.35 145.1 269.55 145.05 270.45 144.95 270.8 144.8 270.8 144.75 271.2 144.75 271.55 144.65 271.55 144.6 271.95 144.6 273.1 143.9 273.25 143.65 273.5 143.45 273.85 143.05 274.8 143.25 275 143.25 275.7 143.4 276.2 143.4 276.45 143.45 277 143.45 277.2 143.5 277.45 143.45 277.75 143.45 278 143.4 278.3 143.4 278.45 143.3 278.7 143.25 279.75 142.75 281.2 142.5 282.45 142.5 283.7 142.75 284.3 143.05 285.35 142 285.65 142.65 286.05 143.3 286.6 143.8 287.35 144.3 289.2 144.9 290.3 145.05 294.85 145.35 296.4 145.8 297.05 146.25 297.45 146.65 297.85 147.2 298 154.5 298.1 155.25 298.1 155.9 298.3 157.05 298.65 158.2 298.95 158.7 299 159.3 298.95 160 298.6 161.4 297.75 162.8 296.6 164.4 292.8 167.7 287.45 171.25 282.65 171.5 280.7 171.8 279.05 172.3 277.7 170.45 276.8 169.65 275.35 168.85 273.55 168.35 270.75 168.15 262.35 169.15 262.3 168.85 262.2 168.6 262 168.35 261.4 167.95 261 167.75 257.85 167.2 257.05 167.2 256.1 167.05 248.8 167.2 246.65 167.4 245.15 167.85 244.6 168.15 243.3 166.7 242.55 166.2 240.7 165.35 238.5 165 237.3 165 225.8 168.15 223.75 166.7 221.3 165.35 220 165 219.45 165 219.4 165.1 219.4 165.65 219.3 165.95 219.25 166.3 219.05 166.55 218.95 166.85 218.65 167.3 218.15 167.6 217.85 167.7 217.65 167.9 217.3 167.95 217 168.05 216.45 168.05 216.35 168.15 215.25 167.85 213.4 167.6 211.85 167.6 210.55 167.85 210.1 168.15 204.25 171.1 200.25 173.75 198.5 175.1 197.75 175.95 197.5 176.45 198.05 179.55 198 180.3 197.5 182.75 197 183.7 196.35 185.65 196.1 187.5 196.2 189.2 196.5 190.05 195.55 191.1 194.9 192.15 194.5 193.2 194.4 194.25 195.05 194.55 195.65 194.95 196.05 195.5 196.45 196.25 196.65 197.1 196.7 198.1 196.5 200.5 194.8 201.8 192.25 204.75 190.95 208.2 190.8 210.05 190.85 212 191.25 214.1 190.5 214.4 189.85 214.85 189.3 215.4 188.5 217 188.15 219.1 188.15 220.4 187.85 223.25 187.05 227.7 187.05 245.45 186.3 245.75 185.7 246.2 185.25 246.7 184.95 247.5 184.75 248.3 184.7 249.3 184.85 251 185 251.75 187.05 255.9 186.3 256.2 185.7 256.65 185.25 257.1 184.95 257.75 184.75 258.4 184.7 259.2 184.75 260.1 185 261.1 186.55 262.95 187 263.95 187.05 264.3 187.05 268.5 179.75 277.85 180.1 279.8 180.15 281.6 180.25 281.75 180 283.45 179.5 285.2 178.75 286.4 178.7 286.65 178.5 286.75 177.65 288 174.55 290.45 173.75 290.2 173.1 290.2 172.45 290.3 171.4 291.1 170.95 291.75 170.6 292.55 170.4 293.55 165.65 293.3 162.25 292.75 160.95 292.25 159.95 291.75 159.2 291.1 159 290.75 158.85 290.45 160.95 286.7 163.05 284.1 165.65 283.8 166.55 283.55 166.9 283.3 167.25 283.1 169.75 280.45 170.4 279.95 172.45 275.8 171.4 253.8 171.2 253.45 170.95 252.5 170.8 251.1 170.5 247.05 170.45 233.95 170.9 230.3 171.4 228.7 171.1 227.9 170.85 225.85 170.95 224.6 171.1 224 171.4 223.55 171.85 220.6 171.9 219.8 171.75 218.4 171.4 217.2 170.4 216.55 169.95 216.2 169.3 215.5 169.1 215.15 168.6 213.8 168.55 213.3 168.65 211.65 169 210.5 169.3 209.9 170.4 201.6 169.3 199.7 168.25 198.45 168.2 197.9 168.05 197.45 167.7 196.55 167 195.8 166.2 195.25 153.6 199.45 141.1 202.6 140.05 199.8 139 197.85 137.95 196.7 137.4 196.4 136.9 196.35 136.7 196.75 136.5 197.2 136.4 197.25 136 198.1 135.2 198.8 134.25 199.45 133.1 199.85 132.75 199.95 132.45 200.05 132.1 200.1 131.8 200.2 131.4 200.2 130.25 200.4 129.45 200.4 129.35 200.45 127 200.6 125.75 200.8 124.65 201.2 124.2 201.45 123.8 201.8 123.4 202.1 123.1 202.5 122.65 203.4 122.35 204.45 122.3 205.75 121.75 205.7 121.35 205.6 120.95 205.4 120.7 205.25 120.4 204.9 120.15 204.1 120.1 203.1 119.8 202.15 119.65 201.8 118.95 201.05 118.1 200.5 115.05 201.8 114.15 202.3 110.8 203.65 109.7 202.6 106.6 205.75 105.55 206.55 104.45 207 103.4 207.05 102.9 206.95 102.4 206.75 89.9 217.2 87.95 217.75 86.5 218.5 85.35 219.4 84.95 219.85 84.65 220.4 82.6 219.35 79.95 221.8 79.4 222.45 79.05 223.1 78.95 223.25 78.85 223.25 78.85 223.4 78.75 223.75 78.1 224.75 77.25 225.25 77.2 225.35 76.75 225.55 76.25 225.6 70.15 230.1 69.7 230.55 69.3 230.85 68.95 231.5 68.95 231.85 63.75 233.95 62.6 234.75 62.25 234.85 62.05 234.85 62.05 234.9 61.95 235.05 61.35 235.2 60 235.25 59.75 235.2 59.2 235.2 58.5 235.05 55.4 239.15 54.3 238.85 52.6 238.65 51.3 238.65 50.45 238.85 50.15 239.15 46.4 240.75 44.35 241.25 43.9 241.3 38.65 241 37.65 240.8 35.5 240.2 34.5 241.3 32.4 240.2 31.8 241.05 31.15 241.75 30.45 242.1 30.05 242.25 29.7 242.3 29.25 242.25 28.05 241.75 28 241.75 26.1 240.2 21.95 237.1 20.45 238.3 20.1 238.65 19.05 239.1 18.8 239.15 17.8 239.2 16.9 239.4 16.2 239.7 15.7 240.2 15.1 240.15 14.6 240 13.55 239.4 12.95 238.95 11.5 237.1 10.15 234.2 8.35 231.85 5.7 233.45 4.4 233.9 4.15 233.95 3.65 233.85 3.25 233.65 2.8 233.3 2.3 232.25 2.05 230.65 2.05 229.8 1.85 228.3 1.5 227.15 1.15 226.6 0.8 226.2 0.4 225.85 0 225.6 0.2 220.75 0.7 217.75 1.5 215.25 2.3 213.95 3.15 212.85 4.15 212 9.35 216.2 10.05 215.7 11.55 214.85 12.25 214.6 12.85 214.3 14.05 214.1 14.6 214.1 22.05 210.65 22.95 210.45 23.65 210.15 25 209.8 26.05 209.65 26.5 209.65 26.85 209.7 27.2 209.9 27.3 208.9 27.4 208.4 27.65 208.05 28.3 207.3 29.25 206.75 30.2 206.4 30.35 206.3 31.1 206.1 32.2 205.6 32.6 205.45 33.2 205 33.55 204.65 33.55 204.6 33.75 204.6 34.5 203.65 34.6 203.6 34.85 203.55 35.1 203.4 35.45 203.3 35.8 203.05 36.25 202.9 36.75 202.6 37.35 202.35 43.9 198.45 50.15 197.4 52.1 196.85 57.45 196.35 58.45 195.8 59.5 195.5 61.65 195.25 67.95 189 76.8 187.9 78.65 187.4 81.5 185.9 104.3 179.1 108.05 178.55 109.2 178.5 111 178.05 113.9 176.45 116.5 176.15 117.4 175.85 117.75 175.6 119.1 174.9 121.25 174.45 122.3 174.4 123.1 173.4 124.1 172.5 125.3 171.7 128.2 170.7 148.8 169 149.95 168.85 150.85 168.55 151.2 168.3 151.55 168.15 152.55 167.25 153.05 166.95 153.6 166.75 154.7 166.7 155.15 166.75 155.75 167.05 163.05 165 170.4 160.8 170.4 156.6 171.1 155.1 171.4 153.75 171.1 152.5 170.8 151.9 170.4 151.35 170.3 142 170 140.3 169.85 139.65 169.5 139 169.15 138.5 168.7 138.1 168.25 137.8 168.25 117.9 167.5 115.05 167.2 111.9 167.05 111.25 166.7 110.05 166.35 109.55 166 109.15 165.6 108.75 165.1 108.55 163.65 109.25 161.55 110.8 160.5 112.3 160.4 113.15 160.5 113.95 160.95 114.8 156.65 115.95 153.3 117.4 151.95 118.15 150.9 119.05 150 120 149.45 121.05 148.45 119 147.05 120.2 142.8 124.8 141.25 126.85 138.95 130.3 138.65 131.05 138.3 131.7 138 133 138 133.6 135.75 135.05 133.55 136.95 133.2 137.5 132.2 138.75 131.75 140.05 131.65 140.95 123.7 143.6 117.8 145.35 113.8 146.2 113.4 146.2 112.55 146.3 111.85 146.2 109.85 144.75 107.35 143.4 106.05 143.05 105.55 143.05 104 143.25 103.3 143.15 102.65 143 101.4 142.15 100.8 141.6 100.35 140.95 100.05 139.1 99.7 138.35 98.4 136.75 97.9 135.7 97.85 134.6 97.9 134.1 98.2 133.6 94.05 123.15 93.75 122.15 93.6 120.5 93.75 120 93.9 119.5 94.2 119.2 94.55 119.05 95.1 119 94.05 104.35 96.15 102.3 98.3 104.1 99 104.6 100.25 105.15 100.45 105.25 100.75 105.35 101.35 105.4 102.75 105.95 103.35 106.25 104.4 107.05 104.85 107.55 105.55 108.55 121.25 111.65 122.3 112.7 123 112.2 124.4 111.35 125.1 111.15 125.7 110.85 126.9 110.6 127.5 110.6 130.25 110.35 130.25 110.3 131.15 110.3 132.55 110 133.8 109.6 136.9 107.45 139.05 108.6 139.75 108.75 141 108.85 142.1 108.55 144.1 107.2 144.7 106.95 145.2 106.65 145.95 106.4 146.3 106.4 147.9 106.6 149.65 106.1 151.55 105 153.6 103.3 155.05 101.8 156.5 100.8 158.35 100.05 158.75 99.9 160.05 99.9 160.45 100 160.95 100.15 161.8 99.8 162.15 99.75 163.3 99.25 164.35 98.55 164.85 98.15 165.35 97.8 166.2 96.75 166.55 96.15 166.55 96.05 166.95 95.6 168.25 92.85 168.5 86.75 169 83.85 169.85 81.95 170.4 81.35 167.25 79.25 169.3 73 169.3 72.45 169.55 71.05 170 69.5 171.4 66.7 170.4 56.25 171.1 54.15 171.25 53.1 171.25 52.8 171.3 52.55 171.4 52.05 170.9 51 170.6 49.95 170.4 47.9 163.05 44.75 160.95 46.9 159.95 44.75 159.6 44.95 159.3 45.15 158.65 45.35 158.45 45.45 157.65 45.45 157.4 45.5 156.2 45.5 153.95 45.1 153.2 44.95 142.35 41.05 140.35 39.75 139.8 39.35 138 37.45 128.55 34.3 119.15 29.05 119.6 27.8 119.85 27.25 120.4 26.75 121.65 25.9 122.4 25.45 124.2 24.8 129.1 24 133.8 23.85 143.2 20.75 144.1 19.75 146.25 18.25 148.35 17.5 150.5 17.4 151.55 17.6 Q154.7 15.55 157.8 13.45 L165.1 12.35 165.7 11.55 167.65 10.1 170.55 8.85 176.65 7.1 182.3 3.95 185 3 199.65 1.9 200.15 1.15 200.9 0.65 201.7 0.2 202.7 0.05 203.85 0 205.05 0.1"/>
  </g>
<g transform="translate(2859.15,50.2)">
    <path stroke="none" fill="#eb3636" d="M128.6 81.55 L128.6 81.7 128.65 81.85 128.8 82.2 128.8 82.35 128.85 82.5 128.95 82.85 128.95 83.25 129 83.35 129.05 83.85 129 83.95 129 84.15 128.95 84.25 128.95 84.45 128.85 84.5 128.8 84.6 128.6 84.6 128.6 84.65 126.75 83.6 125.65 82.55 125.3 81.95 125.2 81.5 125.2 80.95 125.4 80.45 126.1 80.45 127.3 80.6 127.75 80.7 128.05 80.85 128.35 81 128.55 81.25 128.6 81.55"/>
    <path stroke="none" fill="#eb3636" d="M95.75 217.25 L95.55 217.25 95.55 217.3 95.45 217.4 94.85 217.6 93.5 217.65 93.25 217.6 92.75 217.6 92 217.4 86.75 217.4 86.85 217.8 87 218.1 87.3 218.3 87.85 218.4 86.75 219.5 88.1 239.7 89.25 244.25 90.55 247.2 91.6 249.05 92.25 249.9 95.15 252.95 96.55 252.15 97.75 251.05 98.2 250.25 98.25 250.05 98.65 249.5 99.35 247.7 99.8 246.9 100.75 245.75 101.8 244.9 102.4 244.75 103.45 244.55 113.95 235.15 126.45 225.75 126.45 225.2 126.85 224.35 127.65 223.9 128.85 223.65 129.6 223.65 130.65 222.3 131.75 220.55 97.2 216.35 96.1 217.1 95.75 217.25 M106.55 0.7 L106.9 0.9 107.35 1 107.7 0.9 108.05 0.7 108.2 0.55 108.35 0.4 108.7 0 114.95 3.1 118.1 3.9 121.3 4.2 132.55 13.2 135.4 16 135.9 16.7 137.7 18.4 139 20.6 139.75 23.1 140.4 30.95 141.2 33.55 142.45 35.7 143.25 36.6 142.25 37.35 141.4 38.3 140.75 39.3 139.95 41.65 139.8 44.35 140.05 45.95 139.05 55.4 131.75 63.7 130.2 64.65 127.95 66.8 126.65 68.9 126.35 69.95 126.25 71.05 126.45 72.1 112.9 89.85 93 110.8 73.2 128.55 74.65 128.95 74.85 128.95 74.95 129.05 76.05 129.3 77.25 129.5 77.7 129.5 77.8 129.55 78.4 129.6 79.45 128.55 81 128.15 82.5 128.05 84.05 128.15 85.7 128.55 89.15 126.25 90.95 125.45 92.35 125.25 93.55 124.9 94.45 124.2 95.15 123.3 100.35 123.3 101.05 122.75 102.45 122.15 103.75 121.85 105 121.95 105.6 122.25 108.85 119.7 112.9 117.35 113.9 117 114.75 116.6 116.45 116.05 118 115.8 119.45 115.8 120.2 116 121.2 115.45 122.3 115.15 125.85 114.75 127 114.4 127.9 113.7 128.6 112.85 140.05 109.75 154.7 102.4 158.85 101.35 160.4 99.9 160.75 99.25 160.85 98.95 160.95 98.7 160.85 98.4 160.75 98.15 160.4 97.75 159.7 97.4 158.85 97.15 151.55 93 148.3 91.85 146.05 90.6 144.9 89.55 144.65 89.25 144.4 88.85 144.3 88.5 144.25 87.8 152.6 79.4 152 78.9 151.55 78.6 151 78.4 150.55 78.35 157.85 72.1 159.75 72.5 159.95 72.5 162.9 73.05 163.15 73.05 164.1 73.15 164.8 72.85 166.25 72.65 167.55 72.65 168.8 72.85 169.35 73.15 170.1 73.1 170.2 73.05 170.7 73.05 171.9 72.85 172.4 72.7 172.55 72.55 172.8 72.5 173.15 72.25 173.5 72.1 192.3 79.4 192.3 80.45 199.65 83.6 200.75 84.2 204.05 86.95 204.9 87.8 205.6 87.8 207 88.15 208.3 88.95 208.95 89.5 210.1 90.9 212.25 94.85 212.9 95.8 219.5 102.4 221.6 109.75 221.7 110.6 221.7 112 221.45 113.65 221.05 115.7 217.4 127.5 216.9 127.9 215.7 129.2 214.85 129.7 214.8 129.8 213.95 130.35 213.45 130.45 212.95 130.6 212 130.8 211.9 130.75 211 130.75 210.1 130.6 203.8 134.8 189.2 141.05 178.35 148.45 175.1 151 174.55 151.55 139.05 178.7 124.4 189.15 122.7 189.7 120.15 190.85 119.4 191.5 118.85 192.15 118.7 192.85 118.75 193.55 119.15 194.4 149.5 192.3 157.85 192.3 159.3 192.45 160.65 192.5 160.85 192.45 161.75 192.45 162.5 192.3 162.8 192.3 163.35 191.9 163.6 191.85 163.95 191.65 164.3 191.45 164.75 190.85 164.95 190.5 165.2 190.2 165.75 190.25 169.6 191 171.2 191.15 171.5 191.15 171.85 191.2 172.15 191.2 174.9 191.5 176.75 192 179.8 193.35 188.15 195.45 196.5 198.6 199.6 202.9 199.65 203 200 203.55 201.75 207.05 202.25 208.2 203 211.4 203.1 213.4 203.05 213.85 203.05 214.4 202.95 215.35 202.75 216.05 202.75 216.35 190.25 226.8 179.8 239.35 179.5 240.95 178.75 242.7 177.4 244.6 175.6 246.65 172.95 249.45 171.95 251 171.65 251.7 171.5 252.35 171.45 253.35 171.55 254 171.65 254.15 171.8 254.25 171.95 254.25 172.2 254.15 172.5 254 172.95 253.8 173.55 253.75 176.15 254 180.1 255.4 185 258.2 192.2 258.2 193.75 258.4 194.4 258.65 194.8 258.9 195.15 259.3 195.35 259.7 195.45 260.25 196.65 260.95 197.8 261.85 198.45 262.35 199.1 263.1 199.5 263.65 199.75 264.3 199.75 264.9 199.65 265.5 199.05 265.55 198.55 265.75 198.05 266.05 197.55 266.5 198 266.95 198.35 267.55 198.5 268.05 198.65 268.6 198.35 268.8 198.2 269.05 198.1 269.2 198.1 269.45 198.2 269.55 198.35 269.65 198.65 269.7 197.85 270.4 196.9 271.65 196.75 272.2 196.7 272.7 196.7 272.85 196.8 273.1 197.1 273.45 197.55 273.8 199.65 272.8 199.65 275.95 197.55 278 197.5 277.7 197.45 277.55 197.25 277.25 196.9 277.05 196.5 277 196 277.45 195.7 278 195.5 278.45 195.45 279.05 193.4 283.25 192.85 284.75 192.4 287.3 192.3 288.45 179.8 290.55 179.35 290.25 178.95 290.1 178.1 289.85 177.2 289.8 175.4 290.25 173.45 291.65 172.5 292.65 165.1 292.85 163.05 293.15 162.4 293.4 162.05 293.7 153.65 290.55 153.65 291.65 153.1 290.85 152.15 290 151.25 289.5 150.55 289.25 149.9 289.2 149.15 289.25 148.4 289.5 148.05 290.4 147.7 290.9 147.65 291.15 147.35 291.4 147.1 291.7 146.95 291.7 146.95 291.75 146.6 292.1 146.2 292.1 146.2 292.15 145.85 292.2 145.05 292.2 144.15 292 142.15 291.1 140.3 290.45 138.75 290.15 137.45 290.25 136.9 290.55 135.4 290.05 134.05 289.75 131.75 289.5 130.2 289.8 128.85 289.75 128.2 289.55 127.6 289.25 126.45 288.45 107.65 286.4 106 286.55 105.2 286.75 103.65 287.55 102.1 288.75 101.4 289.5 99.75 290.8 98.2 291.8 96.7 292.4 95.85 292.6 95.15 292.65 94.1 293.7 93.5 293.15 93 292.85 92.5 292.7 92 292.65 89.15 294.15 82.6 296.8 82.2 296.65 82.15 296.65 81 296.15 79.1 295 74.15 290.8 59.55 274.9 58.2 273.85 58 273.5 57.75 273.05 57.5 272.15 57.5 271.75 56.85 270.25 56.15 269.1 55.25 268.15 54.8 267.8 54.4 267.55 50.2 251.85 48.05 236.25 51.25 232.05 52.3 229.8 52.5 229.15 52.55 227.9 52.45 227.3 52.25 226.8 61.1 215 63.6 211.25 64.35 209.9 64.6 209.4 64.8 209.05 68.1 208.25 68.3 208.1 68.4 208.1 70.8 207.15 71.2 206.75 71.3 206.75 72.8 205.6 73.3 204.9 73.55 204.75 74.2 203.8 92 193.35 100.35 189.15 100.35 187.1 118.1 175.6 151.55 142.15 141.1 143.2 130.65 147.4 128.6 149.45 128 149.15 126.75 149.05 125.45 149.3 124.05 149.95 120.45 152.8 119.2 153.4 118.65 153.55 118.1 153.65 117.5 153.1 117.05 152.8 116.5 152.65 116.05 152.55 115.25 154 114.15 155.15 113.4 155.65 113.15 155.7 112.6 156.05 110.8 156.75 109.95 157.25 108.15 158.8 107.25 159.9 106.65 160.95 103.7 161.4 102.95 161.5 101.5 161.3 100.35 160.95 97.45 163.55 95.15 165.15 95.15 164.05 78.4 172.45 77.55 172.2 76.75 172.15 75.9 172.2 74.4 172.7 72.85 173.75 72.15 174.5 70.95 176.3 69.7 177.65 68.65 178.25 68.5 178.25 68.5 178.3 68.35 178.4 67.95 178.4 67.95 178.45 67.6 178.6 66.9 178.7 66.65 178.55 66.35 178.45 65.95 178.45 61.4 179.4 51.25 182.9 49.35 184.45 48.3 184.9 48.05 184.95 45.15 185.2 43.95 185.5 Q42.6 186.2 41.2 186.85 L39.7 187.3 38.15 187.4 36.6 187.1 35.55 189.15 33.45 187.8 32.35 187.3 31.6 187.1 31.35 187.1 29.95 186.9 29 186.55 28.6 186.2 28.25 185.45 28.25 184.95 18.8 181.85 17.9 181.2 16.2 179.35 14.4 176.75 10.6 169.85 9.6 168.55 7.9 166.85 5.9 165.55 2.75 164.35 1.05 164.05 0.75 161.7 0.55 161.3 0.4 161.1 0.15 160.95 0 160.95 0.2 160.35 1 159.2 3.35 156.4 4.15 155.7 4.95 154.05 5.25 152.5 4.95 151 4.6 150.15 4.15 149.45 5.4 148.75 5.6 148.5 5.8 148.3 6.25 147.85 6.4 147.25 6.45 146.65 6.3 145.25 6 144.65 5.95 144.2 6 143.15 6.4 142.05 6.75 141.55 7.3 141.05 9.4 142.15 11.5 139 11.95 138.45 12.5 138.05 13.55 137.4 14.6 137.05 15.65 136.95 16.85 134.95 17.45 133.2 17.4 131.8 17.1 131.15 16.75 130.6 17.7 130.8 18.55 130.8 18.7 130.85 19.65 130.8 20.35 130.6 20.65 130.6 21.85 129.95 22.35 129.8 23.6 128.85 24.05 128.55 25.05 126.6 26.1 125.15 27.2 124 27.65 123.6 28.25 123.3 38.7 113.9 44.95 103.5 46 104.5 48.05 101.35 47.75 101.3 47.6 101.2 47.3 100.85 47.2 100.45 47.2 99.7 47.4 98 49.15 93 49.15 92.9 50 92.9 50.4 92.8 50.4 92.75 50.85 92.75 50.95 92.65 50.95 92.55 51.15 92.55 51.45 92.45 51.65 92.25 51.95 92.15 52.25 91.7 52.25 91.5 52.45 91.15 52.35 90.8 52.35 90.5 52.3 90.15 52.25 90.05 52.25 89.85 61.7 78.35 65.25 74.95 67.65 72.05 68.9 69.7 69.05 68.65 69.05 68.25 69 67.9 79.45 56.4 92 43.9 92.35 43.7 92.6 43.55 92.95 43.35 93.3 43 94.85 41.75 101.4 35.5 102.45 27.15 102.6 15.1 102.15 12.5 101.35 11.15 101.05 10.9 100.65 10.7 99.75 10.45 99.35 10.45 105.6 0 106 0.4 106.45 0.7 106.55 0.7"/>
  </g>
</g>
</svg>